<svg viewBox="0 4.604 29.774 9.814" xmlns="http://www.w3.org/2000/svg">
  <path fill="#000" d="M 23.122 7.923 L 22.274 8.768 C 22.309 8.937 22.328 9.119 22.328 9.318 C 22.328 10.389 21.823 11.028 20.981 11.028 C 20.63 11.028 20.335 10.916 20.111 10.702 L 23.041 7.772 C 22.933 7.575 22.8 7.399 22.642 7.241 L 22.642 7.241 L 22.622 7.223 L 22.581 7.186 L 22.581 7.186 C 22.156 6.788 21.609 6.579 20.981 6.579 C 20.257 6.579 19.64 6.857 19.196 7.384 C 18.778 7.88 18.546 8.566 18.546 9.318 C 18.546 9.82 18.65 10.29 18.841 10.695 L 19.689 9.846 C 19.66 9.672 19.645 9.495 19.646 9.318 C 19.646 8.828 19.746 8.429 19.943 8.135 C 20.175 7.792 20.533 7.612 20.981 7.612 C 21.33 7.612 21.621 7.721 21.842 7.924 L 18.917 10.849 C 18.998 10.994 19.091 11.13 19.196 11.254 C 19.215 11.279 19.238 11.303 19.261 11.327 L 19.261 11.327 C 19.285 11.354 19.311 11.381 19.338 11.405 L 19.347 11.416 L 19.371 11.442 L 19.373 11.44 C 19.797 11.846 20.349 12.059 20.981 12.059 C 21.708 12.059 22.328 11.781 22.771 11.254 C 23.193 10.758 23.425 10.072 23.425 9.318 C 23.425 8.812 23.319 8.332 23.122 7.923" style=""/>
  <path d="M 3.833 11.694 L 2.943 9.954 L 2.163 9.954 L 2.163 11.694 L 1.183 11.694 L 1.183 6.934 L 2.953 6.934 C 3.513 6.934 3.946 7.057 4.253 7.304 C 4.56 7.557 4.713 7.914 4.713 8.374 C 4.713 8.694 4.64 8.964 4.493 9.184 C 4.353 9.397 4.14 9.571 3.853 9.704 L 4.893 11.644 L 4.893 11.694 L 3.833 11.694 Z M 2.163 7.724 L 2.163 9.154 L 2.953 9.154 C 3.2 9.154 3.39 9.091 3.523 8.964 C 3.656 8.844 3.723 8.671 3.723 8.444 C 3.723 8.224 3.66 8.047 3.533 7.914 C 3.406 7.787 3.213 7.724 2.953 7.724 L 2.163 7.724 ZM 8.465 11.694 L 8.135 10.714 L 6.415 10.714 L 6.095 11.694 L 5.045 11.694 L 6.825 6.934 L 7.735 6.934 L 9.515 11.694 L 8.465 11.694 Z M 7.275 8.134 L 6.685 9.914 L 7.875 9.914 L 7.275 8.134 ZM 11.81 11.694 L 9.96 11.694 L 9.96 6.934 L 11.62 6.934 C 12.2 6.934 12.64 7.044 12.94 7.264 C 13.24 7.484 13.39 7.807 13.39 8.234 C 13.39 8.467 13.33 8.674 13.21 8.854 C 13.09 9.034 12.923 9.164 12.71 9.244 C 12.95 9.304 13.14 9.427 13.28 9.614 C 13.426 9.801 13.5 10.027 13.5 10.294 C 13.5 10.754 13.353 11.101 13.06 11.334 C 12.766 11.567 12.35 11.687 11.81 11.694 Z M 11.84 9.624 L 10.94 9.624 L 10.94 10.904 L 11.78 10.904 C 12.006 10.904 12.186 10.851 12.32 10.744 C 12.446 10.631 12.51 10.477 12.51 10.284 C 12.51 9.851 12.286 9.631 11.84 9.624 Z M 10.94 7.724 L 10.94 8.924 L 11.66 8.924 C 12.16 8.917 12.41 8.721 12.41 8.334 C 12.41 8.121 12.346 7.964 12.22 7.864 C 12.093 7.771 11.893 7.724 11.62 7.724 L 10.94 7.724 ZM 16.702 10.444 C 16.702 10.257 16.635 10.114 16.502 10.014 C 16.368 9.914 16.132 9.811 15.792 9.704 C 15.452 9.591 15.182 9.481 14.982 9.374 C 14.442 9.087 14.172 8.694 14.172 8.194 C 14.172 7.941 14.245 7.711 14.392 7.504 C 14.538 7.304 14.748 7.147 15.022 7.034 C 15.288 6.921 15.592 6.864 15.932 6.864 C 16.272 6.864 16.575 6.927 16.842 7.054 C 17.108 7.174 17.315 7.347 17.462 7.574 C 17.608 7.794 17.682 8.047 17.682 8.334 L 16.702 8.334 C 16.702 8.121 16.632 7.951 16.492 7.824 C 16.358 7.704 16.165 7.644 15.912 7.644 C 15.672 7.644 15.485 7.697 15.352 7.804 C 15.218 7.904 15.152 8.037 15.152 8.204 C 15.152 8.357 15.232 8.487 15.392 8.594 C 15.545 8.694 15.775 8.791 16.082 8.884 C 16.635 9.051 17.042 9.257 17.302 9.504 C 17.555 9.757 17.682 10.067 17.682 10.434 C 17.682 10.847 17.525 11.171 17.212 11.404 C 16.898 11.644 16.478 11.764 15.952 11.764 C 15.585 11.764 15.252 11.694 14.952 11.554 C 14.652 11.421 14.422 11.237 14.262 11.004 C 14.108 10.771 14.032 10.501 14.032 10.194 L 15.012 10.194 C 15.012 10.721 15.325 10.984 15.952 10.984 C 16.185 10.984 16.368 10.937 16.502 10.844 C 16.635 10.751 16.702 10.617 16.702 10.444 Z" transform="matrix(1, 0, 0, 1, 0, 0)" style="white-space: pre;"/>
  <path d="M 28.244 7.158 L 28.244 11.918 L 27.264 11.918 L 25.354 8.788 L 25.354 11.918 L 24.374 11.918 L 24.374 7.158 L 25.354 7.158 L 27.264 10.298 L 27.264 7.158 L 28.244 7.158 Z" transform="matrix(1, 0, 0, 1, 0, 0)" style="white-space: pre;"/>
</svg>